<svg xmlns="http://www.w3.org/2000/svg" width="620" height="400" viewBox="0 0 620 400" role="img" aria-labelledby="title desc"><title id="title">Đường đồng mức của hàm bậc hai với ma trận Q có hàng 2,1 và 1,2</title><desc id="desc">Hình tự vẽ từ công thức của ví dụ; các giá trị là dữ liệu toán học, không phải kết quả thực nghiệm.</desc><defs><marker id="arr" markerWidth="7" markerHeight="7" refX="6" refY="3.5" orient="auto-start-reverse"><path d="M0,0 L7,3.5 L0,7 Z" fill="context-stroke"/></marker></defs><rect width="100%" height="100%" fill="#ffffff"/><g font-family="Arial, sans-serif"><line x1="152.50" y1="40.00" x2="152.50" y2="330.00" stroke="#e5e9ef" stroke-width="1"/><text x="152.50" y="358.00" font-size="20" fill="#26324a" text-anchor="middle">-1</text><line x1="290.00" y1="40.00" x2="290.00" y2="330.00" stroke="#e5e9ef" stroke-width="1"/><text x="290.00" y="358.00" font-size="20" fill="#26324a" text-anchor="middle">0</text><line x1="427.50" y1="40.00" x2="427.50" y2="330.00" stroke="#e5e9ef" stroke-width="1"/><text x="427.50" y="358.00" font-size="20" fill="#26324a" text-anchor="middle">1</text><line x1="70.00" y1="301.00" x2="510.00" y2="301.00" stroke="#e5e9ef" stroke-width="1"/><text x="60.00" y="308.00" font-size="20" fill="#26324a" text-anchor="end">-1</text><line x1="70.00" y1="185.00" x2="510.00" y2="185.00" stroke="#e5e9ef" stroke-width="1"/><text x="60.00" y="192.00" font-size="20" fill="#26324a" text-anchor="end">0</text><line x1="70.00" y1="69.00" x2="510.00" y2="69.00" stroke="#e5e9ef" stroke-width="1"/><text x="60.00" y="76.00" font-size="20" fill="#26324a" text-anchor="end">1</text><line x1="70.00" y1="185.00" x2="510.00" y2="185.00" stroke="#627086" stroke-width="1.5"/><line x1="290.00" y1="330.00" x2="290.00" y2="40.00" stroke="#627086" stroke-width="1.5"/><text x="522.00" y="331.00" font-size="24" fill="#26324a" text-anchor="start">θ₁</text><text x="50.00" y="33.00" font-size="24" fill="#26324a" text-anchor="start">θ₂</text><polyline points="320.75,159.06 322.40,160.49 324.03,161.93 325.62,163.40 327.18,164.90 328.70,166.41 330.18,167.94 331.62,169.49 333.02,171.05 334.38,172.63 335.70,174.21 336.97,175.81 338.19,177.42 339.37,179.04 340.49,180.66 341.57,182.28 342.60,183.91 343.57,185.54 344.49,187.17 345.36,188.80 346.18,190.42 346.93,192.04 347.64,193.65 348.28,195.25 348.87,196.85 349.40,198.43 349.87,199.99 350.28,201.55 350.63,203.08 350.92,204.60 351.16,206.10 351.33,207.58 351.44,209.03 351.49,210.47 351.48,211.87 351.41,213.25 351.28,214.61 351.08,215.93 350.83,217.22 350.52,218.48 350.15,219.71 349.72,220.91 349.23,222.06 348.68,223.19 348.07,224.27 347.41,225.32 346.69,226.32 345.91,227.29 345.08,228.21 344.19,229.09 343.25,229.93 342.26,230.72 341.22,231.47 340.12,232.17 338.98,232.82 337.79,233.43 336.55,233.99 335.26,234.50 333.93,234.97 332.56,235.38 331.15,235.74 329.69,236.06 328.20,236.32 326.66,236.53 325.09,236.69 323.49,236.81 321.85,236.87 320.19,236.87 318.49,236.83 316.76,236.74 315.01,236.59 313.23,236.40 311.43,236.15 309.61,235.85 307.77,235.51 305.92,235.11 304.04,234.66 302.15,234.17 300.25,233.62 298.35,233.03 296.43,232.39 294.50,231.71 292.58,230.97 290.64,230.20 288.71,229.37 286.78,228.51 284.85,227.60 282.93,226.65 281.02,225.66 279.11,224.62 277.22,223.55 275.33,222.44 273.46,221.30 271.61,220.11 269.78,218.90 267.96,217.65 266.17,216.36 264.40,215.05 262.66,213.71 260.94,212.34 259.25,210.94 257.60,209.51 255.97,208.07 254.38,206.60 252.82,205.10 251.30,203.59 249.82,202.06 248.38,200.51 246.98,198.95 245.62,197.37 244.30,195.79 243.03,194.19 241.81,192.58 240.63,190.96 239.51,189.34 238.43,187.72 237.40,186.09 236.43,184.46 235.51,182.83 234.64,181.20 233.82,179.58 233.07,177.96 232.36,176.35 231.72,174.75 231.13,173.15 230.60,171.57 230.13,170.01 229.72,168.45 229.37,166.92 229.08,165.40 228.84,163.90 228.67,162.42 228.56,160.97 228.51,159.53 228.52,158.13 228.59,156.75 228.72,155.39 228.92,154.07 229.17,152.78 229.48,151.52 229.85,150.29 230.28,149.09 230.77,147.94 231.32,146.81 231.93,145.73 232.59,144.68 233.31,143.68 234.09,142.71 234.92,141.79 235.81,140.91 236.75,140.07 237.74,139.28 238.78,138.53 239.88,137.83 241.02,137.18 242.21,136.57 243.45,136.01 244.74,135.50 246.07,135.03 247.44,134.62 248.85,134.26 250.31,133.94 251.80,133.68 253.34,133.47 254.91,133.31 256.51,133.19 258.15,133.13 259.81,133.13 261.51,133.17 263.24,133.26 264.99,133.41 266.77,133.60 268.57,133.85 270.39,134.15 272.23,134.49 274.08,134.89 275.96,135.34 277.85,135.83 279.75,136.38 281.65,136.97 283.57,137.61 285.50,138.29 287.42,139.03 289.36,139.80 291.29,140.63 293.22,141.49 295.15,142.40 297.07,143.35 298.98,144.34 300.89,145.38 302.78,146.45 304.67,147.56 306.54,148.70 308.39,149.89 310.22,151.10 312.04,152.35 313.83,153.64 315.60,154.95 317.34,156.29 319.06,157.66 320.75,159.06" fill="none" stroke="#aab7cf" stroke-width="2"/><polyline points="340.21,142.64 342.91,144.97 345.57,147.33 348.17,149.74 350.71,152.17 353.19,154.64 355.61,157.14 357.97,159.67 360.26,162.22 362.48,164.79 364.62,167.39 366.70,170.00 368.70,172.62 370.62,175.26 372.46,177.91 374.22,180.57 375.89,183.23 377.48,185.89 378.99,188.55 380.41,191.20 381.73,193.86 382.97,196.50 384.12,199.13 385.17,201.74 386.13,204.34 386.99,206.93 387.76,209.49 388.43,212.02 389.01,214.53 389.49,217.01 389.87,219.46 390.15,221.87 390.33,224.25 390.41,226.59 390.39,228.88 390.28,231.14 390.06,233.35 389.75,235.51 389.34,237.62 388.83,239.68 388.22,241.69 387.52,243.63 386.72,245.53 385.82,247.36 384.83,249.13 383.75,250.84 382.57,252.48 381.30,254.05 379.94,255.56 378.50,257.00 376.96,258.36 375.34,259.66 373.64,260.88 371.85,262.03 369.98,263.10 368.04,264.09 366.01,265.00 363.92,265.84 361.74,266.59 359.50,267.27 357.19,267.86 354.81,268.38 352.37,268.81 349.87,269.15 347.31,269.42 344.69,269.60 342.02,269.70 339.29,269.71 336.52,269.64 333.70,269.49 330.84,269.25 327.94,268.93 325.00,268.53 322.03,268.04 319.02,267.48 315.99,266.83 312.93,266.10 309.85,265.29 306.75,264.40 303.63,263.43 300.50,262.39 297.35,261.27 294.20,260.07 291.05,258.80 287.90,257.46 284.74,256.05 281.60,254.56 278.46,253.01 275.33,251.39 272.22,249.70 269.12,247.96 266.05,246.14 263.00,244.27 259.97,242.34 256.98,240.35 254.01,238.31 251.09,236.22 248.20,234.07 245.35,231.88 242.55,229.64 239.79,227.36 237.09,225.03 234.43,222.67 231.83,220.26 229.29,217.83 226.81,215.36 224.39,212.86 222.03,210.33 219.74,207.78 217.52,205.21 215.38,202.61 213.30,200.00 211.30,197.38 209.38,194.74 207.54,192.09 205.78,189.43 204.11,186.77 202.52,184.11 201.01,181.45 199.59,178.80 198.27,176.14 197.03,173.50 195.88,170.87 194.83,168.26 193.87,165.66 193.01,163.07 192.24,160.51 191.57,157.98 190.99,155.47 190.51,152.99 190.13,150.54 189.85,148.13 189.67,145.75 189.59,143.41 189.61,141.12 189.72,138.86 189.94,136.65 190.25,134.49 190.66,132.38 191.17,130.32 191.78,128.31 192.48,126.37 193.28,124.47 194.18,122.64 195.17,120.87 196.25,119.16 197.43,117.52 198.70,115.95 200.06,114.44 201.50,113.00 203.04,111.64 204.66,110.34 206.36,109.12 208.15,107.97 210.02,106.90 211.96,105.91 213.99,105.00 216.08,104.16 218.26,103.41 220.50,102.73 222.81,102.14 225.19,101.62 227.63,101.19 230.13,100.85 232.69,100.58 235.31,100.40 237.98,100.30 240.71,100.29 243.48,100.36 246.30,100.51 249.16,100.75 252.06,101.07 255.00,101.47 257.97,101.96 260.98,102.52 264.01,103.17 267.07,103.90 270.15,104.71 273.25,105.60 276.37,106.57 279.50,107.61 282.65,108.73 285.80,109.93 288.95,111.20 292.10,112.54 295.26,113.95 298.40,115.44 301.54,116.99 304.67,118.61 307.78,120.30 310.88,122.04 313.95,123.86 317.00,125.73 320.03,127.66 323.02,129.65 325.99,131.69 328.91,133.78 331.80,135.93 334.65,138.12 337.45,140.36 340.21,142.64" fill="none" stroke="#aab7cf" stroke-width="2"/><polyline points="369.39,118.03 373.67,121.70 377.86,125.44 381.97,129.24 385.99,133.09 389.92,137.00 393.74,140.95 397.47,144.94 401.09,148.98 404.59,153.05 407.99,157.15 411.27,161.28 414.43,165.43 417.46,169.60 420.37,173.79 423.16,177.99 425.81,182.19 428.32,186.40 430.70,190.61 432.94,194.81 435.04,199.00 437.00,203.18 438.81,207.34 440.48,211.48 441.99,215.59 443.36,219.67 444.58,223.71 445.64,227.72 446.55,231.69 447.30,235.61 447.90,239.48 448.34,243.30 448.63,247.06 448.76,250.75 448.74,254.39 448.55,257.95 448.21,261.44 447.72,264.86 447.07,268.20 446.26,271.46 445.30,274.63 444.19,277.71 442.92,280.70 441.51,283.60 439.94,286.40 438.23,289.10 436.37,291.69 434.36,294.18 432.21,296.57 429.93,298.84 427.50,301.00 424.94,303.05 422.24,304.98 419.42,306.79 416.47,308.48 413.39,310.05 410.19,311.49 406.87,312.82 403.44,314.01 399.89,315.08 396.24,316.02 392.48,316.83 388.62,317.51 384.66,318.06 380.61,318.48 376.47,318.76 372.25,318.92 367.94,318.94 363.56,318.83 359.10,318.59 354.58,318.21 349.99,317.71 345.34,317.07 340.64,316.30 335.89,315.41 331.09,314.38 326.26,313.23 321.38,311.95 316.48,310.54 311.55,309.02 306.60,307.37 301.63,305.59 296.65,303.70 291.66,301.69 286.67,299.57 281.69,297.34 276.71,294.99 271.75,292.53 266.81,289.97 261.88,287.31 256.99,284.54 252.13,281.68 247.30,278.72 242.52,275.66 237.79,272.52 233.10,269.29 228.47,265.98 223.91,262.59 219.40,259.12 214.97,255.58 210.61,251.97 206.33,248.30 202.14,244.56 198.03,240.76 194.01,236.91 190.08,233.00 186.26,229.05 182.53,225.06 178.91,221.02 175.41,216.95 172.01,212.85 168.73,208.72 165.57,204.57 162.54,200.40 159.63,196.21 156.84,192.01 154.19,187.81 151.68,183.60 149.30,179.39 147.06,175.19 144.96,171.00 143.00,166.82 141.19,162.66 139.52,158.52 138.01,154.41 136.64,150.33 135.42,146.29 134.36,142.28 133.45,138.31 132.70,134.39 132.10,130.52 131.66,126.70 131.37,122.94 131.24,119.25 131.26,115.61 131.45,112.05 131.79,108.56 132.28,105.14 132.93,101.80 133.74,98.54 134.70,95.37 135.81,92.29 137.08,89.30 138.49,86.40 140.06,83.60 141.77,80.90 143.63,78.31 145.64,75.82 147.79,73.43 150.07,71.16 152.50,69.00 155.06,66.95 157.76,65.02 160.58,63.21 163.53,61.52 166.61,59.95 169.81,58.51 173.13,57.18 176.56,55.99 180.11,54.92 183.76,53.98 187.52,53.17 191.38,52.49 195.34,51.94 199.39,51.52 203.53,51.24 207.75,51.08 212.06,51.06 216.44,51.17 220.90,51.41 225.42,51.79 230.01,52.29 234.66,52.93 239.36,53.70 244.11,54.59 248.91,55.62 253.74,56.77 258.62,58.05 263.52,59.46 268.45,60.98 273.40,62.63 278.37,64.41 283.35,66.30 288.34,68.31 293.33,70.43 298.31,72.66 303.29,75.01 308.25,77.47 313.19,80.03 318.12,82.69 323.01,85.46 327.87,88.32 332.70,91.28 337.48,94.34 342.21,97.48 346.90,100.71 351.53,104.02 356.09,107.41 360.60,110.88 365.03,114.42 369.39,118.03" fill="none" stroke="#aab7cf" stroke-width="2"/><polyline points="387.23,102.98 392.47,107.48 397.61,112.06 402.64,116.71 407.57,121.43 412.37,126.21 417.06,131.05 421.62,135.94 426.05,140.88 430.35,145.87 434.51,150.89 438.52,155.95 442.39,161.04 446.11,166.14 449.68,171.27 453.08,176.41 456.33,181.56 459.41,186.72 462.33,191.87 465.07,197.01 467.64,202.15 470.04,207.26 472.26,212.36 474.30,217.43 476.15,222.46 477.83,227.46 479.32,232.42 480.62,237.32 481.73,242.18 482.66,246.98 483.39,251.72 483.93,256.40 484.28,261.00 484.44,265.53 484.41,269.98 484.19,274.35 483.77,278.62 483.17,282.81 482.37,286.90 481.38,290.89 480.21,294.77 478.84,298.55 477.29,302.21 475.56,305.76 473.64,309.18 471.54,312.49 469.26,315.67 466.80,318.72 464.18,321.64 461.37,324.42 458.40,327.07 455.27,329.58 451.97,331.94 448.51,334.16 444.89,336.23 441.12,338.15 437.20,339.92 433.14,341.54 428.93,343.01 424.59,344.31 420.12,345.46 415.51,346.46 410.78,347.29 405.94,347.96 400.98,348.47 395.91,348.82 390.73,349.01 385.46,349.04 380.09,348.90 374.63,348.61 369.09,348.15 363.47,347.53 357.78,346.75 352.02,345.81 346.20,344.71 340.33,343.46 334.40,342.05 328.44,340.48 322.43,338.76 316.39,336.89 310.33,334.87 304.24,332.70 298.14,330.38 292.04,327.92 285.93,325.32 279.82,322.58 273.73,319.71 267.65,316.70 261.59,313.56 255.57,310.30 249.57,306.91 243.62,303.40 237.71,299.78 231.85,296.04 226.05,292.19 220.31,288.24 214.65,284.18 209.05,280.03 203.54,275.78 198.11,271.45 192.77,267.02 187.53,262.52 182.39,257.94 177.36,253.29 172.43,248.57 167.63,243.79 162.94,238.95 158.38,234.06 153.95,229.12 149.65,224.13 145.49,219.11 141.48,214.05 137.61,208.96 133.89,203.86 130.32,198.73 126.92,193.59 123.67,188.44 120.59,183.28 117.67,178.13 114.93,172.99 112.36,167.85 109.96,162.74 107.74,157.64 105.70,152.57 103.85,147.54 102.17,142.54 100.68,137.58 99.38,132.68 98.27,127.82 97.34,123.02 96.61,118.28 96.07,113.60 95.72,109.00 95.56,104.47 95.59,100.02 95.81,95.65 96.23,91.38 96.83,87.19 97.63,83.10 98.62,79.11 99.79,75.23 101.16,71.45 102.71,67.79 104.44,64.24 106.36,60.82 108.46,57.51 110.74,54.33 113.20,51.28 115.82,48.36 118.63,45.58 121.60,42.93 124.73,40.42 128.03,38.06 131.49,35.84 135.11,33.77 138.88,31.85 142.80,30.08 146.86,28.46 151.07,26.99 155.41,25.69 159.88,24.54 164.49,23.54 169.22,22.71 174.06,22.04 179.02,21.53 184.09,21.18 189.27,20.99 194.54,20.96 199.91,21.10 205.37,21.39 210.91,21.85 216.53,22.47 222.22,23.25 227.98,24.19 233.80,25.29 239.67,26.54 245.60,27.95 251.56,29.52 257.57,31.24 263.61,33.11 269.67,35.13 275.76,37.30 281.86,39.62 287.96,42.08 294.07,44.68 300.18,47.42 306.27,50.29 312.35,53.30 318.41,56.44 324.43,59.70 330.43,63.09 336.38,66.60 342.29,70.22 348.15,73.96 353.95,77.81 359.69,81.76 365.35,85.82 370.95,89.97 376.46,94.22 381.89,98.55 387.23,102.98" fill="none" stroke="#aab7cf" stroke-width="2"/><line x1="166.25" y1="289.40" x2="413.75" y2="80.60" stroke="#287c74" stroke-width="2" stroke-dasharray="6 5"/><line x1="125.00" y1="45.80" x2="455.00" y2="324.20" stroke="#b15a2b" stroke-width="2" stroke-dasharray="6 5"/><text x="386.00" y="69.00" font-size="23" fill="#287c74" text-anchor="start">(1; 1)</text><text x="407.00" y="307.00" font-size="23" fill="#b15a2b" text-anchor="start">(1; −1)</text></g></svg>