<svg xmlns="http://www.w3.org/2000/svg" width="600" height="390" viewBox="0 0 600 390" role="img" aria-labelledby="title"><title id="title">Lớp tuyến tính 4 đầu vào, 2 đầu ra; tín hiệu truyền xuôi qua W.</title><defs><marker id="arr" viewBox="0 0 10 10" refX="8" refY="5" markerWidth="7" markerHeight="7" orient="auto-start-reverse"><path d="M0 0L10 5L0 10Z" fill="context-stroke"/></marker></defs><rect width="100%" height="100%" fill="white"/><g font-family="Arial, sans-serif" font-size="24" fill="#263238"><text x="150" y="35" fill="#263238" text-anchor="middle" font-size="24">h ∈ ℝ⁴</text><text x="450" y="35" fill="#263238" text-anchor="middle" font-size="24">z ∈ ℝ²</text><line x1="177" y1="85" x2="425" y2="123" stroke="#afb5b8" stroke-width="1.7" marker-end="url(#arr)"/><line x1="177" y1="85" x2="425" y2="272" stroke="#afb5b8" stroke-width="1.7" marker-end="url(#arr)"/><line x1="177" y1="159" x2="425" y2="123" stroke="#afb5b8" stroke-width="1.7" marker-end="url(#arr)"/><line x1="177" y1="159" x2="425" y2="272" stroke="#afb5b8" stroke-width="1.7" marker-end="url(#arr)"/><line x1="177" y1="233" x2="425" y2="123" stroke="#afb5b8" stroke-width="1.7" marker-end="url(#arr)"/><line x1="177" y1="233" x2="425" y2="272" stroke="#afb5b8" stroke-width="1.7" marker-end="url(#arr)"/><line x1="177" y1="307" x2="425" y2="123" stroke="#afb5b8" stroke-width="1.7" marker-end="url(#arr)"/><line x1="177" y1="307" x2="425" y2="272" stroke="#afb5b8" stroke-width="1.7" marker-end="url(#arr)"/><circle cx="150" cy="85" r="20" fill="#2F3E7A"/><circle cx="150" cy="159" r="20" fill="#2F3E7A"/><circle cx="150" cy="233" r="20" fill="#2F3E7A"/><circle cx="150" cy="307" r="20" fill="#2F3E7A"/><circle cx="450" cy="123" r="20" fill="#B15A2B"/><circle cx="450" cy="272" r="20" fill="#B15A2B"/><text x="300" y="374" fill="#263238" text-anchor="middle" font-size="24">z = Wh; W ∈ ℝ²ˣ⁴</text></g></svg>