<svg xmlns="http://www.w3.org/2000/svg" viewBox="0 0 600 420" role="img" aria-labelledby="title"><title id="title">Tập trên đồ thị của f(w)=w²</title>
<rect width="600" height="420" fill="#fff"/>
<defs><clipPath id="plot"><rect x="70" y="38" width="300" height="300"/></clipPath><marker id="arrow" viewBox="0 0 10 10" refX="8" refY="5" markerWidth="6" markerHeight="6" orient="auto"><path d="M0,0 L10,5 L0,10" fill="#333"/></marker></defs>
<g font-family="Arial,sans-serif" font-size="24" fill="#222">
<line x1="70.0" y1="338.0" x2="370.0" y2="338.0" stroke="#333" stroke-width="3" stroke-dasharray="" marker-end="url(#arrow)"/>
<line x1="70.0" y1="338.0" x2="70.0" y2="38.0" stroke="#333" stroke-width="3" stroke-dasharray="" marker-end="url(#arrow)"/>
<text x="402.00" y="346.00" text-anchor="start" fill="#222" font-size="24">w</text>
<text x="30.00" y="24.00" text-anchor="start" fill="#222" font-size="24">t</text>
<text x="70.00" y="367.00" text-anchor="middle" fill="#222" font-size="24">-2</text>
<text x="220.00" y="367.00" text-anchor="middle" fill="#222" font-size="24">0</text>
<text x="370.00" y="367.00" text-anchor="middle" fill="#222" font-size="24">2</text>
<text x="60.00" y="345.00" text-anchor="end" fill="#222" font-size="24">0</text>
<text x="60.00" y="195.00" text-anchor="end" fill="#222" font-size="24">2</text>
<text x="60.00" y="45.00" text-anchor="end" fill="#222" font-size="24">4</text>
<path d="M70.000,38.000 L71.500,43.970 L73.000,49.880 L74.500,55.730 L76.000,61.520 L77.500,67.250 L79.000,72.920 L80.500,78.530 L82.000,84.080 L83.500,89.570 L85.000,95.000 L86.500,100.370 L88.000,105.680 L89.500,110.930 L91.000,116.120 L92.500,121.250 L94.000,126.320 L95.500,131.330 L97.000,136.280 L98.500,141.170 L100.000,146.000 L101.500,150.770 L103.000,155.480 L104.500,160.130 L106.000,164.720 L107.500,169.250 L109.000,173.720 L110.500,178.130 L112.000,182.480 L113.500,186.770 L115.000,191.000 L116.500,195.170 L118.000,199.280 L119.500,203.330 L121.000,207.320 L122.500,211.250 L124.000,215.120 L125.500,218.930 L127.000,222.680 L128.500,226.370 L130.000,230.000 L131.500,233.570 L133.000,237.080 L134.500,240.530 L136.000,243.920 L137.500,247.250 L139.000,250.520 L140.500,253.730 L142.000,256.880 L143.500,259.970 L145.000,263.000 L146.500,265.970 L148.000,268.880 L149.500,271.730 L151.000,274.520 L152.500,277.250 L154.000,279.920 L155.500,282.530 L157.000,285.080 L158.500,287.570 L160.000,290.000 L161.500,292.370 L163.000,294.680 L164.500,296.930 L166.000,299.120 L167.500,301.250 L169.000,303.320 L170.500,305.330 L172.000,307.280 L173.500,309.170 L175.000,311.000 L176.500,312.770 L178.000,314.480 L179.500,316.130 L181.000,317.720 L182.500,319.250 L184.000,320.720 L185.500,322.130 L187.000,323.480 L188.500,324.770 L190.000,326.000 L191.500,327.170 L193.000,328.280 L194.500,329.330 L196.000,330.320 L197.500,331.250 L199.000,332.120 L200.500,332.930 L202.000,333.680 L203.500,334.370 L205.000,335.000 L206.500,335.570 L208.000,336.080 L209.500,336.530 L211.000,336.920 L212.500,337.250 L214.000,337.520 L215.500,337.730 L217.000,337.880 L218.500,337.970 L220.000,338.000 L221.500,337.970 L223.000,337.880 L224.500,337.730 L226.000,337.520 L227.500,337.250 L229.000,336.920 L230.500,336.530 L232.000,336.080 L233.500,335.570 L235.000,335.000 L236.500,334.370 L238.000,333.680 L239.500,332.930 L241.000,332.120 L242.500,331.250 L244.000,330.320 L245.500,329.330 L247.000,328.280 L248.500,327.170 L250.000,326.000 L251.500,324.770 L253.000,323.480 L254.500,322.130 L256.000,320.720 L257.500,319.250 L259.000,317.720 L260.500,316.130 L262.000,314.480 L263.500,312.770 L265.000,311.000 L266.500,309.170 L268.000,307.280 L269.500,305.330 L271.000,303.320 L272.500,301.250 L274.000,299.120 L275.500,296.930 L277.000,294.680 L278.500,292.370 L280.000,290.000 L281.500,287.570 L283.000,285.080 L284.500,282.530 L286.000,279.920 L287.500,277.250 L289.000,274.520 L290.500,271.730 L292.000,268.880 L293.500,265.970 L295.000,263.000 L296.500,259.970 L298.000,256.880 L299.500,253.730 L301.000,250.520 L302.500,247.250 L304.000,243.920 L305.500,240.530 L307.000,237.080 L308.500,233.570 L310.000,230.000 L311.500,226.370 L313.000,222.680 L314.500,218.930 L316.000,215.120 L317.500,211.250 L319.000,207.320 L320.500,203.330 L322.000,199.280 L323.500,195.170 L325.000,191.000 L326.500,186.770 L328.000,182.480 L329.500,178.130 L331.000,173.720 L332.500,169.250 L334.000,164.720 L335.500,160.130 L337.000,155.480 L338.500,150.770 L340.000,146.000 L341.500,141.170 L343.000,136.280 L344.500,131.330 L346.000,126.320 L347.500,121.250 L349.000,116.120 L350.500,110.930 L352.000,105.680 L353.500,100.370 L355.000,95.000 L356.500,89.570 L358.000,84.080 L359.500,78.530 L361.000,72.920 L362.500,67.250 L364.000,61.520 L365.500,55.730 L367.000,49.880 L368.500,43.970 L370.000,38.000 L370.000,38.000 L70.000,38.000 Z" fill="#edf1fc" stroke="#2f3e7a" stroke-width="3" stroke-dasharray="" clip-path="url(#plot)"/>
<path d="M70.000,38.000 L71.500,43.970 L73.000,49.880 L74.500,55.730 L76.000,61.520 L77.500,67.250 L79.000,72.920 L80.500,78.530 L82.000,84.080 L83.500,89.570 L85.000,95.000 L86.500,100.370 L88.000,105.680 L89.500,110.930 L91.000,116.120 L92.500,121.250 L94.000,126.320 L95.500,131.330 L97.000,136.280 L98.500,141.170 L100.000,146.000 L101.500,150.770 L103.000,155.480 L104.500,160.130 L106.000,164.720 L107.500,169.250 L109.000,173.720 L110.500,178.130 L112.000,182.480 L113.500,186.770 L115.000,191.000 L116.500,195.170 L118.000,199.280 L119.500,203.330 L121.000,207.320 L122.500,211.250 L124.000,215.120 L125.500,218.930 L127.000,222.680 L128.500,226.370 L130.000,230.000 L131.500,233.570 L133.000,237.080 L134.500,240.530 L136.000,243.920 L137.500,247.250 L139.000,250.520 L140.500,253.730 L142.000,256.880 L143.500,259.970 L145.000,263.000 L146.500,265.970 L148.000,268.880 L149.500,271.730 L151.000,274.520 L152.500,277.250 L154.000,279.920 L155.500,282.530 L157.000,285.080 L158.500,287.570 L160.000,290.000 L161.500,292.370 L163.000,294.680 L164.500,296.930 L166.000,299.120 L167.500,301.250 L169.000,303.320 L170.500,305.330 L172.000,307.280 L173.500,309.170 L175.000,311.000 L176.500,312.770 L178.000,314.480 L179.500,316.130 L181.000,317.720 L182.500,319.250 L184.000,320.720 L185.500,322.130 L187.000,323.480 L188.500,324.770 L190.000,326.000 L191.500,327.170 L193.000,328.280 L194.500,329.330 L196.000,330.320 L197.500,331.250 L199.000,332.120 L200.500,332.930 L202.000,333.680 L203.500,334.370 L205.000,335.000 L206.500,335.570 L208.000,336.080 L209.500,336.530 L211.000,336.920 L212.500,337.250 L214.000,337.520 L215.500,337.730 L217.000,337.880 L218.500,337.970 L220.000,338.000 L221.500,337.970 L223.000,337.880 L224.500,337.730 L226.000,337.520 L227.500,337.250 L229.000,336.920 L230.500,336.530 L232.000,336.080 L233.500,335.570 L235.000,335.000 L236.500,334.370 L238.000,333.680 L239.500,332.930 L241.000,332.120 L242.500,331.250 L244.000,330.320 L245.500,329.330 L247.000,328.280 L248.500,327.170 L250.000,326.000 L251.500,324.770 L253.000,323.480 L254.500,322.130 L256.000,320.720 L257.500,319.250 L259.000,317.720 L260.500,316.130 L262.000,314.480 L263.500,312.770 L265.000,311.000 L266.500,309.170 L268.000,307.280 L269.500,305.330 L271.000,303.320 L272.500,301.250 L274.000,299.120 L275.500,296.930 L277.000,294.680 L278.500,292.370 L280.000,290.000 L281.500,287.570 L283.000,285.080 L284.500,282.530 L286.000,279.920 L287.500,277.250 L289.000,274.520 L290.500,271.730 L292.000,268.880 L293.500,265.970 L295.000,263.000 L296.500,259.970 L298.000,256.880 L299.500,253.730 L301.000,250.520 L302.500,247.250 L304.000,243.920 L305.500,240.530 L307.000,237.080 L308.500,233.570 L310.000,230.000 L311.500,226.370 L313.000,222.680 L314.500,218.930 L316.000,215.120 L317.500,211.250 L319.000,207.320 L320.500,203.330 L322.000,199.280 L323.500,195.170 L325.000,191.000 L326.500,186.770 L328.000,182.480 L329.500,178.130 L331.000,173.720 L332.500,169.250 L334.000,164.720 L335.500,160.130 L337.000,155.480 L338.500,150.770 L340.000,146.000 L341.500,141.170 L343.000,136.280 L344.500,131.330 L346.000,126.320 L347.500,121.250 L349.000,116.120 L350.500,110.930 L352.000,105.680 L353.500,100.370 L355.000,95.000 L356.500,89.570 L358.000,84.080 L359.500,78.530 L361.000,72.920 L362.500,67.250 L364.000,61.520 L365.500,55.730 L367.000,49.880 L368.500,43.970 L370.000,38.000" fill="none" stroke="#2f3e7a" stroke-width="3" stroke-dasharray="" clip-path="url(#plot)"/>
<line x1="92.5" y1="263.0" x2="347.5" y2="263.0" stroke="#b15a2b" stroke-width="3" stroke-dasharray="7 5"/>
<text x="227.50" y="128.00" text-anchor="start" fill="#222" font-size="24">t ≥ w²</text>
<text x="300.00" y="406.00" text-anchor="middle" fill="#222" font-size="22">Hạ cận t tới giá trị nhỏ nhất</text>
</g></svg>