<svg xmlns="http://www.w3.org/2000/svg" viewBox="0 0 600 420" role="img" aria-labelledby="title"><title id="title">Phản ví dụ trung điểm với x₁²−x₂²≤1</title>
<rect width="600" height="420" fill="#fff"/>
<defs><clipPath id="plot"><rect x="70" y="38" width="300" height="300"/></clipPath><marker id="arrow" viewBox="0 0 10 10" refX="8" refY="5" markerWidth="6" markerHeight="6" orient="auto"><path d="M0,0 L10,5 L0,10" fill="#333"/></marker></defs>
<g font-family="Arial,sans-serif" font-size="24" fill="#222">
<line x1="70.0" y1="338.0" x2="370.0" y2="338.0" stroke="#333" stroke-width="3" stroke-dasharray="" marker-end="url(#arrow)"/>
<line x1="70.0" y1="338.0" x2="70.0" y2="38.0" stroke="#333" stroke-width="3" stroke-dasharray="" marker-end="url(#arrow)"/>
<text x="402.00" y="346.00" text-anchor="start" fill="#222" font-size="24">x₁</text>
<text x="30.00" y="24.00" text-anchor="start" fill="#222" font-size="24">x₂</text>
<text x="70.00" y="367.00" text-anchor="middle" fill="#222" font-size="24">-2</text>
<text x="220.00" y="367.00" text-anchor="middle" fill="#222" font-size="24">0</text>
<text x="370.00" y="367.00" text-anchor="middle" fill="#222" font-size="24">2</text>
<text x="60.00" y="345.00" text-anchor="end" fill="#222" font-size="24">-1,5</text>
<text x="60.00" y="195.00" text-anchor="end" fill="#222" font-size="24">0</text>
<text x="60.00" y="45.00" text-anchor="end" fill="#222" font-size="24">1,5</text>
<path d="M84.792,338.000 L85.726,336.500 L86.658,335.000 L87.587,333.500 L88.512,332.000 L89.435,330.500 L90.354,329.000 L91.270,327.500 L92.183,326.000 L93.092,324.500 L93.998,323.000 L94.900,321.500 L95.799,320.000 L96.693,318.500 L97.584,317.000 L98.472,315.500 L99.355,314.000 L100.234,312.500 L101.109,311.000 L101.980,309.500 L102.846,308.000 L103.708,306.500 L104.566,305.000 L105.419,303.500 L106.267,302.000 L107.110,300.500 L107.948,299.000 L108.782,297.500 L109.610,296.000 L110.433,294.500 L111.250,293.000 L112.062,291.500 L112.868,290.000 L113.668,288.500 L114.463,287.000 L115.251,285.500 L116.034,284.000 L116.810,282.500 L117.579,281.000 L118.342,279.500 L119.098,278.000 L119.847,276.500 L120.589,275.000 L121.324,273.500 L122.051,272.000 L122.771,270.500 L123.483,269.000 L124.187,267.500 L124.883,266.000 L125.571,264.500 L126.250,263.000 L126.921,261.500 L127.582,260.000 L128.235,258.500 L128.879,257.000 L129.513,255.500 L130.138,254.000 L130.752,252.500 L131.357,251.000 L131.952,249.500 L132.536,248.000 L133.109,246.500 L133.672,245.000 L134.223,243.500 L134.764,242.000 L135.292,240.500 L135.809,239.000 L136.314,237.500 L136.807,236.000 L137.288,234.500 L137.756,233.000 L138.211,231.500 L138.654,230.000 L139.083,228.500 L139.498,227.000 L139.900,225.500 L140.288,224.000 L140.662,222.500 L141.022,221.000 L141.367,219.500 L141.698,218.000 L142.014,216.500 L142.314,215.000 L142.600,213.500 L142.870,212.000 L143.125,210.500 L143.364,209.000 L143.587,207.500 L143.795,206.000 L143.986,204.500 L144.161,203.000 L144.320,201.500 L144.462,200.000 L144.588,198.500 L144.697,197.000 L144.789,195.500 L144.865,194.000 L144.924,192.500 L144.966,191.000 L144.992,189.500 L145.000,188.000 L144.992,186.500 L144.966,185.000 L144.924,183.500 L144.865,182.000 L144.789,180.500 L144.697,179.000 L144.588,177.500 L144.462,176.000 L144.320,174.500 L144.161,173.000 L143.986,171.500 L143.795,170.000 L143.587,168.500 L143.364,167.000 L143.125,165.500 L142.870,164.000 L142.600,162.500 L142.314,161.000 L142.014,159.500 L141.698,158.000 L141.367,156.500 L141.022,155.000 L140.662,153.500 L140.288,152.000 L139.900,150.500 L139.498,149.000 L139.083,147.500 L138.654,146.000 L138.211,144.500 L137.756,143.000 L137.288,141.500 L136.807,140.000 L136.314,138.500 L135.809,137.000 L135.292,135.500 L134.764,134.000 L134.223,132.500 L133.672,131.000 L133.109,129.500 L132.536,128.000 L131.952,126.500 L131.357,125.000 L130.752,123.500 L130.138,122.000 L129.513,120.500 L128.879,119.000 L128.235,117.500 L127.582,116.000 L126.921,114.500 L126.250,113.000 L125.571,111.500 L124.883,110.000 L124.187,108.500 L123.483,107.000 L122.771,105.500 L122.051,104.000 L121.324,102.500 L120.589,101.000 L119.847,99.500 L119.098,98.000 L118.342,96.500 L117.579,95.000 L116.810,93.500 L116.034,92.000 L115.251,90.500 L114.463,89.000 L113.668,87.500 L112.868,86.000 L112.062,84.500 L111.250,83.000 L110.433,81.500 L109.610,80.000 L108.782,78.500 L107.948,77.000 L107.110,75.500 L106.267,74.000 L105.419,72.500 L104.566,71.000 L103.708,69.500 L102.846,68.000 L101.980,66.500 L101.109,65.000 L100.234,63.500 L99.355,62.000 L98.472,60.500 L97.584,59.000 L96.693,57.500 L95.799,56.000 L94.900,54.500 L93.998,53.000 L93.092,51.500 L92.183,50.000 L91.270,48.500 L90.354,47.000 L89.435,45.500 L88.512,44.000 L87.587,42.500 L86.658,41.000 L85.726,39.500 L84.792,38.000 L355.208,38.000 L354.274,39.500 L353.342,41.000 L352.413,42.500 L351.488,44.000 L350.565,45.500 L349.646,47.000 L348.730,48.500 L347.817,50.000 L346.908,51.500 L346.002,53.000 L345.100,54.500 L344.201,56.000 L343.307,57.500 L342.416,59.000 L341.528,60.500 L340.645,62.000 L339.766,63.500 L338.891,65.000 L338.020,66.500 L337.154,68.000 L336.292,69.500 L335.434,71.000 L334.581,72.500 L333.733,74.000 L332.890,75.500 L332.052,77.000 L331.218,78.500 L330.390,80.000 L329.567,81.500 L328.750,83.000 L327.938,84.500 L327.132,86.000 L326.332,87.500 L325.537,89.000 L324.749,90.500 L323.966,92.000 L323.190,93.500 L322.421,95.000 L321.658,96.500 L320.902,98.000 L320.153,99.500 L319.411,101.000 L318.676,102.500 L317.949,104.000 L317.229,105.500 L316.517,107.000 L315.813,108.500 L315.117,110.000 L314.429,111.500 L313.750,113.000 L313.079,114.500 L312.418,116.000 L311.765,117.500 L311.121,119.000 L310.487,120.500 L309.862,122.000 L309.248,123.500 L308.643,125.000 L308.048,126.500 L307.464,128.000 L306.891,129.500 L306.328,131.000 L305.777,132.500 L305.236,134.000 L304.708,135.500 L304.191,137.000 L303.686,138.500 L303.193,140.000 L302.712,141.500 L302.244,143.000 L301.789,144.500 L301.346,146.000 L300.917,147.500 L300.502,149.000 L300.100,150.500 L299.712,152.000 L299.338,153.500 L298.978,155.000 L298.633,156.500 L298.302,158.000 L297.986,159.500 L297.686,161.000 L297.400,162.500 L297.130,164.000 L296.875,165.500 L296.636,167.000 L296.413,168.500 L296.205,170.000 L296.014,171.500 L295.839,173.000 L295.680,174.500 L295.538,176.000 L295.412,177.500 L295.303,179.000 L295.211,180.500 L295.135,182.000 L295.076,183.500 L295.034,185.000 L295.008,186.500 L295.000,188.000 L295.008,189.500 L295.034,191.000 L295.076,192.500 L295.135,194.000 L295.211,195.500 L295.303,197.000 L295.412,198.500 L295.538,200.000 L295.680,201.500 L295.839,203.000 L296.014,204.500 L296.205,206.000 L296.413,207.500 L296.636,209.000 L296.875,210.500 L297.130,212.000 L297.400,213.500 L297.686,215.000 L297.986,216.500 L298.302,218.000 L298.633,219.500 L298.978,221.000 L299.338,222.500 L299.712,224.000 L300.100,225.500 L300.502,227.000 L300.917,228.500 L301.346,230.000 L301.789,231.500 L302.244,233.000 L302.712,234.500 L303.193,236.000 L303.686,237.500 L304.191,239.000 L304.708,240.500 L305.236,242.000 L305.777,243.500 L306.328,245.000 L306.891,246.500 L307.464,248.000 L308.048,249.500 L308.643,251.000 L309.248,252.500 L309.862,254.000 L310.487,255.500 L311.121,257.000 L311.765,258.500 L312.418,260.000 L313.079,261.500 L313.750,263.000 L314.429,264.500 L315.117,266.000 L315.813,267.500 L316.517,269.000 L317.229,270.500 L317.949,272.000 L318.676,273.500 L319.411,275.000 L320.153,276.500 L320.902,278.000 L321.658,279.500 L322.421,281.000 L323.190,282.500 L323.966,284.000 L324.749,285.500 L325.537,287.000 L326.332,288.500 L327.132,290.000 L327.938,291.500 L328.750,293.000 L329.567,294.500 L330.390,296.000 L331.218,297.500 L332.052,299.000 L332.890,300.500 L333.733,302.000 L334.581,303.500 L335.434,305.000 L336.292,306.500 L337.154,308.000 L338.020,309.500 L338.891,311.000 L339.766,312.500 L340.645,314.000 L341.528,315.500 L342.416,317.000 L343.307,318.500 L344.201,320.000 L345.100,321.500 L346.002,323.000 L346.908,324.500 L347.817,326.000 L348.730,327.500 L349.646,329.000 L350.565,330.500 L351.488,332.000 L352.413,333.500 L353.342,335.000 L354.274,336.500 L355.208,338.000 Z" fill="#edf1fc" stroke="#2f3e7a" stroke-width="3" stroke-dasharray="" clip-path="url(#plot)"/>
<line x1="326.06601717798213" y1="288.0" x2="326.06601717798213" y2="88.0" stroke="#b15a2b" stroke-width="3" stroke-dasharray="7 5"/>
<circle cx="326.06601717798213" cy="88.0" r="6" fill="#b15a2b" stroke="#fff" stroke-width="2"/>
<text x="331.32" y="78.00" text-anchor="start" fill="#222" font-size="21">a</text>
<circle cx="326.06601717798213" cy="288.0" r="6" fill="#b15a2b" stroke="#fff" stroke-width="2"/>
<text x="331.32" y="278.00" text-anchor="start" fill="#222" font-size="21">b</text>
<circle cx="326.06601717798213" cy="188.0" r="6" fill="#b15a2b" stroke="#fff" stroke-width="2"/>
<text x="331.32" y="178.00" text-anchor="start" fill="#222" font-size="21">m ∉ C</text>
<text x="300.00" y="406.00" text-anchor="middle" fill="#222" font-size="22">Hai đầu khả thi; trung điểm vi phạm</text>
</g></svg>